<svg width="652" height="225" viewBox="0 0 652 225" fill="none" xmlns="http://www.w3.org/2000/svg">
<path fill-rule="evenodd" clip-rule="evenodd" d="M651.301 86.9686V142.538H618.677V92.133C618.677 78.2924 611.657 72.0951 600.714 72.0951C594.932 72.0951 588.738 75.1937 582.957 81.391V142.538H550.333V0H582.957V51.6441C590.803 45.8599 599.269 42.5547 609.592 42.5547C634.37 42.5547 651.301 59.2874 651.301 86.9686ZM425.828 86.9686V142.538H393.205V92.133C393.205 78.2924 386.184 72.0951 375.241 72.0951C369.46 72.0951 363.266 75.1937 357.484 81.391V142.538H324.861V45.2402H357.484V51.6441C365.33 45.8599 373.796 42.5547 384.12 42.5547C409.103 42.5547 425.828 59.2874 425.828 86.9686ZM307.104 142.538V45.2402H274.893V106.18C269.112 112.377 262.918 115.889 256.93 115.889C246.193 115.889 238.966 109.279 238.966 95.4382V45.2402H206.343V100.396C206.343 128.077 223.068 145.223 247.845 145.223C258.169 145.223 266.634 141.711 274.48 135.721V142.538H307.104ZM539.597 102.668H508.832C507.18 111.551 499.54 117.748 489.629 117.748C475.589 117.748 467.33 107.006 467.33 93.7856C467.33 80.5647 475.589 70.0293 489.629 70.0293C499.334 70.0293 506.973 76.2266 508.625 85.1094H539.39C536.913 60.1137 516.265 42.5547 489.423 42.5547C458.864 42.5547 436.152 64.2452 436.152 93.7856C436.152 123.533 458.864 145.223 489.423 145.223C516.471 145.223 537.119 127.664 539.597 102.668ZM69.4489 112.377H34.1414V5.9907H0.279175V142.538H89.4772C79.7728 135.514 72.3396 124.979 69.4489 112.377ZM189.412 45.2402V142.538H156.995V137.373C149.768 142.124 141.096 145.223 130.36 145.223C104.137 145.223 82.044 122.706 82.044 93.7856C82.044 64.6584 104.137 42.5547 130.36 42.5547C141.096 42.5547 149.768 45.4468 156.995 50.198V45.2402H189.412ZM156.995 108.866V78.7055C150.801 71.8885 143.987 70.0293 136.967 70.0293C123.752 70.0293 113.841 80.3581 113.841 93.7856C113.841 107.213 123.752 117.542 136.967 117.542C143.781 117.542 150.594 115.683 156.995 108.866ZM369.796 176.302H374.371V190.364C375.235 189.265 376.293 188.431 377.544 187.862C378.806 187.272 380.274 186.977 381.946 186.977C383.619 186.977 385.103 187.305 386.398 187.96C387.693 188.6 388.776 189.518 389.645 190.715C390.53 191.912 391.202 193.347 391.661 195.019C392.121 196.675 392.35 198.52 392.35 200.553V201.07C392.35 203.005 392.121 204.8 391.661 206.456C391.202 208.096 390.53 209.522 389.645 210.736C388.759 211.949 387.677 212.892 386.398 213.564C385.119 214.237 383.651 214.573 381.995 214.573C380.306 214.573 378.823 214.286 377.544 213.712C376.281 213.122 375.215 212.277 374.346 211.179L374.305 211.126L374.284 211.1C374.26 211.068 374.236 211.037 374.212 211.005L373.977 214.081H369.796V176.302ZM374.371 194.948V206.506C374.471 206.712 374.578 206.917 374.69 207.12C375.297 208.17 376.101 209.031 377.101 209.703C378.117 210.375 379.372 210.711 380.864 210.711C382.094 210.711 383.143 210.465 384.012 209.973C384.898 209.465 385.611 208.768 386.152 207.883C386.71 206.997 387.119 205.973 387.382 204.808C387.644 203.644 387.775 202.398 387.775 201.07V200.553C387.775 199.225 387.652 197.979 387.406 196.815C387.16 195.634 386.767 194.601 386.226 193.716C385.685 192.814 384.971 192.109 384.086 191.601C383.201 191.076 382.11 190.814 380.815 190.814C379.667 190.814 378.667 191.01 377.814 191.404C376.978 191.797 376.265 192.33 375.674 193.003C375.158 193.576 374.724 194.224 374.371 194.948ZM393.876 187.469L403.375 213.794L402.386 216.491C402.025 217.59 401.591 218.451 401.082 219.074C400.591 219.713 399.984 220.164 399.262 220.426C398.541 220.705 397.664 220.845 396.631 220.845C396.516 220.845 396.311 220.828 396.016 220.795C395.81 220.783 395.644 220.771 395.519 220.759C395.491 220.756 395.466 220.754 395.442 220.751L395.401 220.746L395.426 224.436C395.655 224.501 396.049 224.583 396.606 224.682C397.164 224.78 397.623 224.829 397.983 224.829C399.197 224.829 400.238 224.608 401.107 224.165C401.992 223.739 402.747 223.181 403.37 222.493C403.993 221.804 404.501 221.074 404.895 220.304C405.305 219.549 405.633 218.844 405.879 218.188L416.553 187.469H411.683L405.505 207.379L398.844 187.469H393.876ZM459.376 214.081V178.27H454.678V205.964L436.576 178.27H431.829V214.081H436.576V186.46L454.604 214.081H459.376ZM479.275 182.156V214.081H474.601V182.156H463.115V178.27H474.601H479.275H490.785V182.156H479.275ZM508.716 214.081V182.156H520.227V178.27H508.716H504.043H492.557V182.156H504.043V214.081H508.716ZM544.726 214.081H539.782H537.249H535.036V178.27H537.102H539.782H545.169C547.514 178.27 549.653 178.663 551.588 179.45C553.523 180.221 555.187 181.344 556.581 182.82C557.991 184.279 559.074 186.05 559.828 188.133C560.582 190.199 560.959 192.527 560.959 195.118V197.258C560.959 199.848 560.582 202.185 559.828 204.267C559.074 206.333 557.983 208.096 556.557 209.555C555.146 211.015 553.441 212.138 551.441 212.925C549.457 213.696 547.219 214.081 544.726 214.081ZM544.726 210.219H539.782V182.156H545.169C546.94 182.156 548.506 182.443 549.867 183.017C551.244 183.591 552.408 184.435 553.359 185.55C554.31 186.649 555.032 188.001 555.524 189.608C556.016 191.199 556.261 193.019 556.261 195.069V197.258C556.261 199.865 555.827 202.144 554.958 204.095C554.105 206.03 552.826 207.538 551.121 208.621C549.416 209.686 547.284 210.219 544.726 210.219ZM579.874 178.27H580.907L594.607 214.081H589.737L586.326 204.71H571.349L567.945 214.081H563.1L576.75 178.27H577.784H579.874ZM572.761 200.824H584.912L578.83 184.115L572.761 200.824ZM608.43 182.156V214.081H603.757V182.156H592.271V178.27H603.757H608.43H619.941V182.156H608.43ZM635.609 178.27H636.643L650.342 214.081H645.472L642.062 204.71H627.084L623.681 214.081H618.835L632.486 178.27H633.519H635.609ZM628.496 200.824H640.647L634.565 184.114L628.496 200.824Z" fill="white"/>
</svg>
